HIERARCHY
ROOT Hips
{
 OFFSET 0.000000 0.000000 0.000000
 CHANNELS 6 Xposition Yposition Zposition Yrotation Xrotation Zrotation
 JOINT Chest
 {
  OFFSET 0.000000 9.303000 0.001900
  CHANNELS 3 Yrotation Xrotation Zrotation
  JOINT Chest2
  {
   OFFSET 0.000000 9.301100 -0.003900
   CHANNELS 3 Yrotation Xrotation Zrotation
   JOINT Chest3
   {
    OFFSET 0.000000 9.262800 0.000000
    CHANNELS 3 Yrotation Xrotation Zrotation
    JOINT Chest4
    {
     OFFSET 0.000000 9.253300 0.000000
     CHANNELS 3 Yrotation Xrotation Zrotation
     JOINT Neck
     {
      OFFSET 0.000000 14.010300 0.000000
      CHANNELS 3 Yrotation Xrotation Zrotation
      JOINT Head
      {
       OFFSET 0.000000 8.657600 -0.008300
       CHANNELS 3 Yrotation Xrotation Zrotation
       End Site
       {
        OFFSET 0.000000 16.540200 -0.004400
       }
      }
     }
     JOINT RightCollar
     {
      OFFSET -2.834100 9.267700 0.000000
      CHANNELS 3 Yrotation Xrotation Zrotation
      JOINT RightShoulder
      {
       OFFSET -13.135200 0.000000 0.000000
       CHANNELS 3 Yrotation Xrotation Zrotation
       JOINT RightElbow
       {
        OFFSET 0.000000 -28.893500 0.000000
        CHANNELS 3 Yrotation Xrotation Zrotation
        JOINT RightWrist
        {
         OFFSET 0.000000 -23.344000 0.000000
         CHANNELS 3 Yrotation Xrotation Zrotation
         End Site
         {
          OFFSET 0.000000 -17.223000 0.000000
         }
        }
       }
      }
     }
     JOINT LeftCollar
     {
      OFFSET 2.834100 9.267700 0.000000
      CHANNELS 3 Yrotation Xrotation Zrotation
      JOINT LeftShoulder
      {
       OFFSET 13.135200 0.000000 0.000000
       CHANNELS 3 Yrotation Xrotation Zrotation
       JOINT LeftElbow
       {
        OFFSET 0.000000 -28.893500 0.000000
        CHANNELS 3 Yrotation Xrotation Zrotation
        JOINT LeftWrist
        {
         OFFSET 0.000000 -23.344000 0.000000
         CHANNELS 3 Yrotation Xrotation Zrotation
         End Site
         {
          OFFSET 0.000000 -17.223000 0.000000
         }
        }
       }
      }
     }
    }
   }
  }
 }
 JOINT RightHip
 {
  OFFSET -7.547200 -0.009500 -0.001000
  CHANNELS 3 Yrotation Xrotation Zrotation
  JOINT RightKnee
  {
   OFFSET 0.000000 -39.762800 0.000900
   CHANNELS 3 Yrotation Xrotation Zrotation
   JOINT RightAnkle
   {
    OFFSET 0.000000 -38.588200 0.001600
    CHANNELS 3 Yrotation Xrotation Zrotation
    JOINT RightToe
    {
     OFFSET 0.000000 -4.693300 10.419700
     CHANNELS 3 Yrotation Xrotation Zrotation
     End Site
     {
      OFFSET 0.000000 -1.379900 5.669300
     }
    }
   }
  }
 }
 JOINT LeftHip
 {
  OFFSET 7.547200 -0.009500 -0.001000
  CHANNELS 3 Yrotation Xrotation Zrotation
  JOINT LeftKnee
  {
   OFFSET 0.000000 -39.762800 0.000900
   CHANNELS 3 Yrotation Xrotation Zrotation
   JOINT LeftAnkle
   {
    OFFSET 0.000000 -38.588200 0.001600
    CHANNELS 3 Yrotation Xrotation Zrotation
    JOINT LeftToe
    {
     OFFSET 0.000000 -4.693300 10.419700
     CHANNELS 3 Yrotation Xrotation Zrotation
     End Site
     {
      OFFSET 0.000000 -1.379900 5.669300
     }
    }
   }
  }
 }
}
MOTION
Frames: 11
Frame Time: 0.008333
0.000000 82.880600 0.000000 0.000000 -5.767877 0.000000 0.000000 11.653817 0.000000 0.000000 -5.885947 0.000000 0.000000 -0.000000 0.000000 0.000000 -0.000000 0.000000 0.000000 12.528835 0.000000 0.000000 0.711642 0.000000 0.000000 -0.000000 0.000000 0.000000 0.000000 -90.000000 0.000000 -2.309062 0.000000 0.000000 2.309062 0.000000 0.000000 -0.000000 0.000000 0.000000 -0.000000 90.000000 0.000000 -2.309062 0.000000 0.000000 2.309062 0.000000 0.000000 8.520406 0.000000 0.000000 1.905762 0.000000 -0.000000 -4.658285 0.000000 0.000000 -0.000000 0.000000 0.000000 8.520406 0.000000 0.000000 1.905762 0.000000 -0.000000 -4.658285 0.000000 0.000000 -0.000000 0.000000
1.861046 45.975301 8.625226 170.221196 -9.976239 0.583945 0.431734 8.282205 -0.032171 0.017337 0.407156 0.009664 0.042246 0.720594 0.023810 0.428432 7.791887 0.259070 -1.807428 20.771616 0.385474 -2.009592 -3.671676 0.806516 -2.096175 0.800040 -9.056074 -2.387687 -5.484517 0.097996 -64.266073 -86.523541 82.413884 -7.770452 -4.817541 -23.222660 -6.209321 2.070940 -0.777449 16.299824 -5.310712 5.474109 61.047397 -75.891212 -84.995685 5.421568 -1.449993 12.071488 -29.391036 -77.851910 16.757458 -137.944104 84.989417 -138.374535 -6.915545 -10.338452 -3.042056 0.041968 -0.217479 0.022510 -0.002269 -76.950909 17.111021 91.344696 78.612987 88.549076 -12.614423 -7.796167 2.038145 0.104755 0.386416 0.039659
1.862685 45.975523 8.624714 170.216600 -9.980010 0.578200 0.428332 8.278311 -0.031608 0.021747 0.411033 0.011932 0.037862 0.717035 0.021117 0.429014 7.792801 0.255575 -1.801823 20.747319 0.371201 -1.999332 -3.667310 0.808133 -2.084121 0.792993 -9.052155 -2.387074 -5.488578 0.074786 -63.866601 -86.571778 81.998118 -7.787664 -4.833677 -23.229218 -6.207028 2.066296 -0.768380 16.273674 -5.318075 5.482892 60.949788 -75.863241 -84.917792 5.413153 -1.465455 12.112987 -29.407854 -77.845839 16.773128 -138.013578 84.989200 -138.449831 -6.879984 -10.338268 -3.044895 0.050343 -0.218505 0.025264 -0.026042 -76.946010 17.140773 91.338242 78.613236 88.543485 -12.615267 -7.797584 2.040524 0.104339 0.388587 0.038222
1.864354 45.975465 8.625465 170.219117 -9.975421 0.568845 0.420315 8.265868 -0.028268 0.017214 0.400451 0.007736 0.042504 0.726646 0.024614 0.429281 7.789757 0.251689 -1.792422 20.754590 0.376306 -1.994303 -3.687635 0.794160 -2.075289 0.800468 -9.045694 -2.381491 -5.498132 0.050101 -63.632263 -86.588088 81.748593 -7.767403 -4.842243 -23.238250 -6.201809 2.072694 -0.760744 16.224515 -5.342089 5.486071 60.815392 -75.830600 -84.788226 5.414357 -1.474760 12.132595 -29.459454 -77.847401 16.813205 -138.156673 84.991332 -138.601126 -6.824267 -10.335283 -3.049035 0.059506 -0.221302 0.029542 -0.067880 -76.949848 17.182194 91.315309 78.613675 88.519179 -12.613357 -7.796121 2.043601 0.104123 0.391492 0.037583
1.864660 45.975694 8.624084 170.217081 -9.981663 0.569399 0.416519 8.262390 -0.032913 0.020280 0.400645 0.007185 0.039374 0.724462 0.024719 0.426159 7.767989 0.241470 -1.782412 20.767154 0.377607 -1.988886 -3.689282 0.787649 -2.052143 0.812478 -9.036079 -2.375271 -5.501974 0.006025 -63.494810 -86.549064 81.591667 -7.724551 -4.839208 -23.254493 -6.194155 2.100816 -0.750964 16.209753 -5.345704 5.487134 60.735744 -75.804992 -84.754027 5.435959 -1.474149 12.123941 -29.440023 -77.843789 16.792597 -138.226984 84.990985 -138.670985 -6.856313 -10.338595 -3.045525 0.061719 -0.222815 0.031255 -0.064233 -76.942419 17.185816 91.332526 78.609584 88.529965 -12.620285 -7.799667 2.052079 0.103165 0.392596 0.037554
1.864066 45.975925 8.622316 170.219784 -9.988353 0.573290 0.409465 8.251916 -0.045433 0.023086 0.413258 0.012702 0.039110 0.718374 0.021924 0.426796 7.771591 0.243425 -1.782223 20.755003 0.368337 -1.986232 -3.690980 0.783040 -2.043349 0.803519 -9.036584 -2.375999 -5.494522 -0.006255 -63.102521 -86.578252 81.187027 -7.739357 -4.838477 -23.263761 -6.189313 2.082127 -0.744408 16.127657 -5.357674 5.502942 60.639964 -75.766254 -84.612156 5.466715 -1.473120 12.098200 -29.408291 -77.840443 16.761134 -138.214753 84.988201 -138.652592 -6.960162 -10.347334 -3.036663 0.059540 -0.222806 0.031267 -0.055286 -76.933713 17.171856 91.332685 78.604923 88.528586 -12.623814 -7.802556 2.052367 0.104059 0.394150 0.038686
1.863911 45.976052 8.621258 170.217901 -9.989645 0.572770 0.410044 8.249182 -0.045955 0.023247 0.412999 0.011975 0.035478 0.703409 0.018949 0.431089 7.784760 0.245990 -1.784071 20.732522 0.354500 -1.981635 -3.680339 0.781015 -2.030016 0.794428 -9.038091 -2.361373 -5.500438 -0.065964 -62.439472 -86.521589 80.513051 -7.757898 -4.859000 -23.282824 -6.185264 2.077342 -0.735629 16.084890 -5.363341 5.506790 60.556977 -75.710582 -84.582804 5.471913 -1.491420 12.142259 -29.393294 -77.841475 16.743555 -138.269658 84.990419 -138.702248 -7.012427 -10.349612 -3.033564 0.060810 -0.225268 0.032852 -0.064212 -76.930955 17.180777 91.335260 78.604483 88.530082 -12.622269 -7.805118 2.053720 0.104000 0.395493 0.037497
1.861957 45.976405 8.618850 170.223217 -9.995274 0.581578 0.401799 8.250872 -0.056477 0.021716 0.408465 0.011388 0.038090 0.699443 0.018495 0.429048 7.782632 0.246697 -1.781631 20.743018 0.352524 -1.979523 -3.691993 0.766308 -2.011945 0.791563 -9.039918 -2.366205 -5.485568 -0.080546 -62.053595 -86.450218 80.129367 -7.758990 -4.853751 -23.290112 -6.181458 2.081504 -0.728225 16.063716 -5.359763 5.506186 60.497318 -75.645021 -84.610187 5.479385 -1.513525 12.202525 -29.294409 -77.841214 16.646370 -138.170938 84.986995 -138.577453 -7.180594 -10.369098 -3.019393 0.037489 -0.218870 0.026154 -0.029778 -76.924843 17.139144 91.338063 78.604885 88.532540 -12.628451 -7.802072 2.055259 0.112936 0.391749 0.037672
1.858696 45.977142 8.614586 170.241336 -10.007795 0.596408 0.381409 8.253954 -0.075375 0.021493 0.407541 0.011346 0.040262 0.693063 0.015948 0.423201 7.779707 0.248515 -1.780068 20.745431 0.344692 -1.976662 -3.681849 0.764756 -1.985456 0.797987 -9.040856 -2.378069 -5.473403 -0.095294 -61.727483 -86.321147 79.816018 -7.770034 -4.842137 -23.291630 -6.177075 2.093483 -0.723504 16.041671 -5.359675 5.509130 60.471269 -75.560500 -84.668053 5.504829 -1.534903 12.259979 -29.188838 -77.835886 16.540148 -137.963475 84.977509 -138.343689 -7.425557 -10.395194 -2.996801 -0.001405 -0.213027 0.014235 0.040221 -76.914999 17.045695 91.346469 78.602529 88.545000 -12.631998 -7.792464 2.056223 0.105252 0.380557 0.037809
1.861103 45.977579 8.613380 170.236995 -10.002360 0.576049 0.391222 8.234147 -0.056903 0.027100 0.387076 0.005189 0.037761 0.707213 0.019792 0.425452 7.751403 0.245414 -1.779964 20.749166 0.326710 -1.981575 -3.642837 0.782495 -1.967675 0.832758 -9.037499 -2.381163 -5.467831 -0.123194 -61.565499 -86.098367 79.670638 -7.789081 -4.819210 -23.285324 -6.183697 2.140538 -0.717491 15.993475 -5.375721 5.536546 60.494381 -75.395674 -84.776203 5.544682 -1.554256 12.330588 -29.259191 -77.828355 16.608723 -138.039062 84.984465 -138.421064 -7.368388 -10.394273 -3.002696 0.012000 -0.213209 0.015766 -0.057082 -76.924196 17.153518 91.380877 78.606305 88.578954 -12.632137 -7.789493 2.057478 0.106021 0.374809 0.038641
1.864244 45.978456 8.611074 170.227368 -9.997896 0.551992 0.417983 8.192797 -0.040841 0.021800 0.403677 0.011269 0.038102 0.704391 0.019793 0.430048 7.736653 0.245708 -1.784095 20.759839 0.317384 -1.979378 -3.646962 0.748535 -1.910617 0.863522 -9.028341 -2.422100 -5.463440 -0.155168 -61.583969 -85.777579 79.716383 -7.807140 -4.783501 -23.263757 -6.197230 2.163723 -0.711234 15.989088 -5.362469 5.541704 60.510709 -75.149394 -84.958436 5.604875 -1.567951 12.417473 -29.342019 -77.817036 16.688526 -138.260244 84.995082 -138.661578 -7.194924 -10.389770 -3.012087 0.037906 -0.211592 0.021352 -0.162406 -76.931210 17.274108 91.430018 78.604134 88.629227 -12.633649 -7.796996 2.060278 0.108216 0.375095 0.037844
